{
  "accessors": [
    {
      "bufferView": 2,
      "componentType": 5126,
      "count": 8240,
      "max": [
        2.533531904220581,
        0.986411988735199,
        6.5666890144348145
      ],
      "min": [
        -2.497847080230713,
        -0.9975159764289856,
        0.3014479875564575
      ],
      "type": "VEC3"
    },
    {
      "bufferView": 2,
      "byteOffset": 98880,
      "componentType": 5126,
      "count": 8240,
      "max": [
        0.9999980926513672,
        0.999980092048645,
        0.9998906254768372
      ],
      "min": [
        -0.9999980926513672,
        -0.9999802112579346,
        -0.9998822212219238
      ],
      "type": "VEC3"
    },
    {
      "bufferView": 1,
      "componentType": 5126,
      "count": 8240,
      "max": [
        1.0,
        1.0
      ],
      "min": [
        0.0,
        0.0
      ],
      "type": "VEC2"
    },
    {
      "bufferView": 0,
      "componentType": 5125,
      "count": 38112,
      "type": "SCALAR"
    },
    {
      "bufferView": 2,
      "byteOffset": 197760,
      "componentType": 5126,
      "count": 9886,
      "max": [
        2.709599018096924,
        0.49196699261665344,
        4.96328592300415
      ],
      "min": [
        -1.1235229969024658,
        -0.31488099694252014,
        2.1444509029388428
      ],
      "type": "VEC3"
    },
    {
      "bufferView": 2,
      "byteOffset": 316392,
      "componentType": 5126,
      "count": 9886,
      "max": [
        0.9999334812164307,
        1.0,
        0.999840259552002
      ],
      "min": [
        -0.9999333620071411,
        -1.0,
        -0.9999962449073792
      ],
      "type": "VEC3"
    },
    {
      "bufferView": 1,
      "byteOffset": 65920,
      "componentType": 5126,
      "count": 9886,
      "max": [
        1.0,
        1.0
      ],
      "min": [
        0.0,
        0.0
      ],
      "type": "VEC2"
    },
    {
      "bufferView": 0,
      "byteOffset": 152448,
      "componentType": 5125,
      "count": 54936,
      "type": "SCALAR"
    },
    {
      "bufferView": 2,
      "byteOffset": 435024,
      "componentType": 5126,
      "count": 9999,
      "max": [
        2.680521011352539,
        1.69023597240448,
        10.01429271697998
      ],
      "min": [
        -2.644835948944092,
        -1.4982719421386719,
        2.5604209899902344
      ],
      "type": "VEC3"
    },
    {
      "bufferView": 2,
      "byteOffset": 555012,
      "componentType": 5126,
      "count": 9999,
      "max": [
        1.0,
        1.0,
        0.9994587898254395
      ],
      "min": [
        -1.0,
        -1.0,
        -0.9992286562919617
      ],
      "type": "VEC3"
    },
    {
      "bufferView": 1,
      "byteOffset": 145008,
      "componentType": 5126,
      "count": 9999,
      "max": [
        1.0,
        1.0
      ],
      "min": [
        0.0,
        0.0
      ],
      "type": "VEC2"
    },
    {
      "bufferView": 0,
      "byteOffset": 372192,
      "componentType": 5125,
      "count": 53988,
      "type": "SCALAR"
    },
    {
      "bufferView": 2,
      "byteOffset": 675000,
      "componentType": 5126,
      "count": 8276,
      "max": [
        -0.6436480283737183,
        0.4836350083351135,
        6.191627025604248
      ],
      "min": [
        -2.6739139556884766,
        -0.30875200033187866,
        2.584434986114502
      ],
      "type": "VEC3"
    },
    {
      "bufferView": 2,
      "byteOffset": 774312,
      "componentType": 5126,
      "count": 8276,
      "max": [
        0.9999333620071411,
        1.0,
        0.999840259552002
      ],
      "min": [
        -0.9999334812164307,
        -1.0,
        -0.9999962449073792
      ],
      "type": "VEC3"
    },
    {
      "bufferView": 1,
      "byteOffset": 225000,
      "componentType": 5126,
      "count": 8276,
      "max": [
        1.0,
        1.0
      ],
      "min": [
        0.0,
        0.0
      ],
      "type": "VEC2"
    },
    {
      "bufferView": 0,
      "byteOffset": 588144,
      "componentType": 5125,
      "count": 46104,
      "type": "SCALAR"
    },
    {
      "bufferView": 2,
      "byteOffset": 873624,
      "componentType": 5126,
      "count": 4469,
      "max": [
        1.1849080324172974,
        0.8659849762916565,
        9.698452949523926
      ],
      "min": [
        -1.1849080324172974,
        -1.5578550100326538,
        6.919457912445068
      ],
      "type": "VEC3"
    },
    {
      "bufferView": 2,
      "byteOffset": 927252,
      "componentType": 5126,
      "count": 4469,
      "max": [
        1.0,
        0.9998261332511902,
        1.0
      ],
      "min": [
        -1.0,
        -0.9998978972434998,
        -0.9999996423721313
      ],
      "type": "VEC3"
    },
    {
      "bufferView": 1,
      "byteOffset": 291208,
      "componentType": 5126,
      "count": 4469,
      "max": [
        1.0,
        1.0
      ],
      "min": [
        0.0,
        0.0
      ],
      "type": "VEC2"
    },
    {
      "bufferView": 0,
      "byteOffset": 772560,
      "componentType": 5125,
      "count": 16656,
      "type": "SCALAR"
    },
    {
      "bufferView": 2,
      "byteOffset": 980880,
      "componentType": 5126,
      "count": 1270,
      "max": [
        1.094323992729187,
        -1.0238360166549683,
        8.947606086730957
      ],
      "min": [
        -1.1204969882965088,
        -1.5424139499664307,
        8.141050338745117
      ],
      "type": "VEC3"
    },
    {
      "bufferView": 2,
      "byteOffset": 996120,
      "componentType": 5126,
      "count": 1270,
      "max": [
        0.9999798536300659,
        1.9999990854557836e-06,
        0.9998738765716553
      ],
      "min": [
        -0.9999622106552124,
        -0.9895082116127014,
        -0.9998157620429993
      ],
      "type": "VEC3"
    },
    {
      "bufferView": 1,
      "byteOffset": 326960,
      "componentType": 5126,
      "count": 1270,
      "max": [
        1.0,
        1.0
      ],
      "min": [
        0.0,
        0.0
      ],
      "type": "VEC2"
    },
    {
      "bufferView": 0,
      "byteOffset": 839184,
      "componentType": 5125,
      "count": 4704,
      "type": "SCALAR"
    },
    {
      "bufferView": 2,
      "byteOffset": 1011360,
      "componentType": 5126,
      "count": 9556,
      "max": [
        1.5930010080337524,
        1.208611011505127,
        7.037275791168213
      ],
      "min": [
        -1.6924769878387451,
        -1.0654009580612183,
        -0.22385600209236145
      ],
      "type": "VEC3"
    },
    {
      "bufferView": 2,
      "byteOffset": 1126032,
      "componentType": 5126,
      "count": 9556,
      "max": [
        1.0,
        1.0,
        1.0
      ],
      "min": [
        -1.0,
        -1.0,
        -1.0
      ],
      "type": "VEC3"
    },
    {
      "bufferView": 1,
      "byteOffset": 337120,
      "componentType": 5126,
      "count": 9556,
      "max": [
        0.65625,
        1.0
      ],
      "min": [
        0.34375,
        -0.0
      ],
      "type": "VEC2"
    },
    {
      "bufferView": 0,
      "byteOffset": 858000,
      "componentType": 5125,
      "count": 53652,
      "type": "SCALAR"
    },
    {
      "bufferView": 2,
      "byteOffset": 1240704,
      "componentType": 5126,
      "count": 745,
      "max": [
        1.6123820543289185,
        1.2016730308532715,
        0.5231829881668091
      ],
      "min": [
        -0.13381700217723846,
        -1.0654009580612183,
        -0.22385600209236145
      ],
      "type": "VEC3"
    },
    {
      "bufferView": 2,
      "byteOffset": 1249644,
      "componentType": 5126,
      "count": 745,
      "max": [
        0.9947063326835632,
        0.9589093327522278,
        1.0
      ],
      "min": [
        -0.9715266227722168,
        -0.9965734481811523,
        -1.0
      ],
      "type": "VEC3"
    },
    {
      "bufferView": 1,
      "byteOffset": 413568,
      "componentType": 5126,
      "count": 745,
      "max": [
        0.65625,
        1.0
      ],
      "min": [
        0.34375,
        -0.0
      ],
      "type": "VEC2"
    },
    {
      "bufferView": 0,
      "byteOffset": 1072608,
      "componentType": 5125,
      "count": 4092,
      "type": "SCALAR"
    }
  ],
  "asset": {
    "extras": {
      "author": "Ollendorf (https://sketchfab.com/OllendorfDev)",
      "license": "CC-BY-4.0 (http://creativecommons.org/licenses/by/4.0/)",
      "source": "https://sketchfab.com/3d-models/robot-model-efac40973dfb4763989106a7f771afd7",
      "title": "Robot Model"
    },
    "generator": "Sketchfab-12.65.0",
    "version": "2.0"
  },
  "bufferViews": [
    {
      "buffer": 0,
      "byteLength": 1088976,
      "name": "floatBufferViews",
      "target": 34963
    },
    {
      "buffer": 0,
      "byteLength": 419528,
      "byteOffset": 1088976,
      "byteStride": 8,
      "name": "floatBufferViews",
      "target": 34962
    },
    {
      "buffer": 0,
      "byteLength": 1258584,
      "byteOffset": 1508504,
      "byteStride": 12,
      "name": "floatBufferViews",
      "target": 34962
    }
  ],
  "buffers": [
    {
      "byteLength": 2767088,
      "uri": "scene.bin"
    }
  ],
  "materials": [
    {
      "doubleSided": true,
      "name": "blinn2SG",
      "pbrMetallicRoughness": {
        "baseColorFactor": [
          0.5,
          0.5,
          0.5,
          1.0
        ],
        "metallicFactor": 0.0,
        "roughnessFactor": 0.6
      }
    },
    {
      "doubleSided": true,
      "name": "blinn3SG",
      "pbrMetallicRoughness": {
        "baseColorFactor": [
          0.34,
          0.34,
          0.34,
          1.0
        ],
        "metallicFactor": 0.0,
        "roughnessFactor": 0.6
      }
    },
    {
      "doubleSided": true,
      "name": "initialShadingGroup",
      "pbrMetallicRoughness": {
        "baseColorFactor": [
          0.5,
          0.5,
          0.5,
          1.0
        ],
        "metallicFactor": 0.0,
        "roughnessFactor": 0.6
      }
    },
    {
      "doubleSided": true,
      "emissiveFactor": [
        0.690268602087047,
        0.642888082790183,
        0.642888082790183
      ],
      "name": "lambert2SG",
      "pbrMetallicRoughness": {
        "metallicFactor": 0.0,
        "roughnessFactor": 0.6
      }
    },
    {
      "doubleSided": true,
      "name": "lambert3SG",
      "pbrMetallicRoughness": {
        "baseColorFactor": [
          0.08,
          0.08,
          0.08,
          1.0
        ],
        "metallicFactor": 0.0,
        "roughnessFactor": 0.6
      }
    }
  ],
  "meshes": [
    {
      "name": "Object_0",
      "primitives": [
        {
          "attributes": {
            "NORMAL": 1,
            "POSITION": 0,
            "TEXCOORD_0": 2
          },
          "indices": 3,
          "material": 0,
          "mode": 4
        }
      ]
    },
    {
      "name": "Object_1",
      "primitives": [
        {
          "attributes": {
            "NORMAL": 5,
            "POSITION": 4,
            "TEXCOORD_0": 6
          },
          "indices": 7,
          "material": 1,
          "mode": 4
        }
      ]
    },
    {
      "name": "Object_2",
      "primitives": [
        {
          "attributes": {
            "NORMAL": 9,
            "POSITION": 8,
            "TEXCOORD_0": 10
          },
          "indices": 11,
          "material": 1,
          "mode": 4
        }
      ]
    },
    {
      "name": "Object_3",
      "primitives": [
        {
          "attributes": {
            "NORMAL": 13,
            "POSITION": 12,
            "TEXCOORD_0": 14
          },
          "indices": 15,
          "material": 1,
          "mode": 4
        }
      ]
    },
    {
      "name": "Object_4",
      "primitives": [
        {
          "attributes": {
            "NORMAL": 17,
            "POSITION": 16,
            "TEXCOORD_0": 18
          },
          "indices": 19,
          "material": 2,
          "mode": 4
        }
      ]
    },
    {
      "name": "Object_5",
      "primitives": [
        {
          "attributes": {
            "NORMAL": 21,
            "POSITION": 20,
            "TEXCOORD_0": 22
          },
          "indices": 23,
          "material": 3,
          "mode": 4
        }
      ]
    },
    {
      "name": "Object_6",
      "primitives": [
        {
          "attributes": {
            "NORMAL": 25,
            "POSITION": 24,
            "TEXCOORD_0": 26
          },
          "indices": 27,
          "material": 4,
          "mode": 4
        }
      ]
    },
    {
      "name": "Object_7",
      "primitives": [
        {
          "attributes": {
            "NORMAL": 29,
            "POSITION": 28,
            "TEXCOORD_0": 30
          },
          "indices": 31,
          "material": 4,
          "mode": 4
        }
      ]
    }
  ],
  "nodes": [
    {
      "children": [
        1
      ],
      "matrix": [
        1.0,
        0.0,
        0.0,
        0.0,
        0.0,
        2.220446049250313e-16,
        -1.0,
        0.0,
        0.0,
        1.0,
        2.220446049250313e-16,
        0.0,
        0.0,
        0.0,
        0.0,
        1.0
      ],
      "name": "Sketchfab_model"
    },
    {
      "children": [
        2,
        3,
        4,
        5,
        6,
        7,
        8,
        9
      ],
      "name": "robot.obj.cleaner.materialmerger.gles"
    },
    {
      "mesh": 0,
      "name": "Object_2"
    },
    {
      "mesh": 1,
      "name": "Object_3"
    },
    {
      "mesh": 2,
      "name": "Object_4"
    },
    {
      "mesh": 3,
      "name": "Object_5"
    },
    {
      "mesh": 4,
      "name": "Object_6"
    },
    {
      "mesh": 5,
      "name": "Object_7"
    },
    {
      "mesh": 6,
      "name": "Object_8"
    },
    {
      "mesh": 7,
      "name": "Object_9"
    }
  ],
  "scene": 0,
  "scenes": [
    {
      "name": "Sketchfab_Scene",
      "nodes": [
        0
      ]
    }
  ]
}
